# xmcd
#
# Track frame offsets:
#	150
#	10216
#	20057
#	31149
#	42157
#	54927
#	66251
#	78193
#	88302
#	99686
#	115063
#	125224
#	134974
#	145901
#	156577
#	171786
#	179633
#	190714
#	203105
#	215491
#
# Disc length: 3050 seconds
#
# Revision: 1
# Processed by: cddbd v1.5.2PL0 Copyright (c) Steve Scherf et al.
# Submitted via: audiograbber 1.83.01
#
DISCID=2b0be814
DTITLE=Chet Atkins - The Best of Young Chet
DYEAR=2009
DGENRE=Instrumental
TTITLE0=Country Gentleman
TTITLE1=Wildwood Flower
TTITLE2=San Antonio Rose
TTITLE3=Mister Misery
TTITLE4=Get Up And Go
TTITLE5=A Gay Ranchero
TTITLE6=Honesuckle Rose
TTITLE7=Silver Bell
TTITLE8=Under The Double Eagle
TTITLE9=Caravan
TTITLE10=Mister Sandman
TTITLE11=New Spanish Two Step
TTITLE12=Unchained Melody
TTITLE13=Blues In The Night
TTITLE14=Tenderly
TTITLE15=Minute Waltz
TTITLE16=Minuet
TTITLE17=La Golondrina
TTITLE18=Memphis Blues
TTITLE19=St. Louis Blues
EXTD=
EXTT0=
EXTT1=
EXTT2=
EXTT3=
EXTT4=
EXTT5=
EXTT6=
EXTT7=
EXTT8=
EXTT9=
EXTT10=
EXTT11=
EXTT12=
EXTT13=
EXTT14=
EXTT15=
EXTT16=
EXTT17=
EXTT18=
EXTT19=
PLAYORDER=
